<svg xmlns="http://www.w3.org/2000/svg" xmlns:xlink="http://www.w3.org/1999/xlink" viewBox="0 0 1003.9 1003.86"><defs><linearGradient id="a" x1="761.93" y1="-996.25" x2="761.93" y2="-585.07" gradientTransform="translate(-1362.13 2429.71) scale(2.44)" gradientUnits="userSpaceOnUse"><stop offset="0" stop-color="#61fd7d"/><stop offset="1" stop-color="#2bb826"/></linearGradient></defs><title>whatsapp-33</title><path d="M999.92,746.59c0,5.5-.16,17.43-.48,26.62-.81,22.53-2.61,51.6-5.3,64.85-4.06,19.92-10.2,38.71-18.19,54.33a193.61,193.61,0,0,1-85.17,85.09c-15.74,8-34.61,14.13-54.65,18.19-13.13,2.65-42,4.42-64.37,5.18-9.23.32-21.12.48-26.62.48l-494.3-.08c-5.5,0-17.43-.16-26.62-.48-22.53-.81-51.6-2.61-64.85-5.3-19.92-4.06-38.71-10.2-54.33-18.19A193.61,193.61,0,0,1,20,892.11c-8-15.74-14.13-34.61-18.19-54.65-2.65-13.13-4.42-42-5.18-64.37-.32-9.23-.48-21.12-.48-26.62l.08-494.3c0-5.5.16-17.43.48-26.62C-2.54,203.06-.77,174,2,160.74,6,140.82,12.16,122,20.15,106.41a193.61,193.61,0,0,1,85.17-85.09c15.74-8,34.61-14.13,54.65-18.19C173.1.48,201.93-1.29,224.34-2c9.23-.32,21.12-.48,26.62-.48l494.3.08c5.5,0,17.43.16,26.62.48,22.53.81,51.6,2.61,64.85,5.3,19.92,4.06,38.71,10.2,54.33,18.19a193.61,193.61,0,0,1,85.09,85.17c8,15.74,14.13,34.61,18.19,54.65,2.65,13.13,4.42,42,5.18,64.37.32,9.23.48,21.12.48,26.62l-.08,494.26Z" transform="translate(3.9 2.53)" fill="url(#a)"/><path d="M764,235A357.8,357.8,0,0,0,509.35,129.42c-198.4,0-359.9,161.42-360,359.86a358.93,358.93,0,0,0,48.06,179.93L146.36,855.69l190.81-50.07a360,360,0,0,0,172,43.81h.16c198.41,0,359.91-161.46,360-359.87A357.67,357.67,0,0,0,764,235ZM509.35,788.67h-.12A299.27,299.27,0,0,1,356.93,747L346,740.53,232.77,770.24,263,659.86l-7.11-11.33a298.72,298.72,0,0,1-45.78-159.21c.08-164.91,134.28-299.11,299.35-299.11A299.2,299.2,0,0,1,808.54,489.56c0,164.92-134.27,299.11-299.19,299.11Zm164.11-224c-9-4.5-53.2-26.26-61.47-29.27s-14.26-4.5-20.24,4.5-23.25,29.27-28.47,35.25-10.48,6.75-19.47,2.25-38-14-72.32-44.61c-26.75-23.85-44.81-53.29-50-62.28s-.57-13.85,3.93-18.35c4.06-4,9-10.52,13.49-15.74s6-9,9-15,1.48-11.24-.77-15.74-20.23-48.75-27.74-66.78c-7.31-17.54-14.74-15.18-20.24-15.42-5.26-.24-11.24-.32-17.23-.32s-15.74,2.25-24,11.25-31.48,30.75-31.48,75,32.24,87,36.74,93,63.45,96.81,153.67,135.76a512.5,512.5,0,0,0,51.28,19C589.7,664,609.3,663,624.8,660.7c17.26-2.57,53.2-21.76,60.71-42.76s7.51-39,5.26-42.77-8.31-6-17.31-10.52Z" transform="translate(3.9 2.53)" fill="#fff"/></svg>